<svg width="14" height="14" viewBox="0 0 14 14" fill="none" xmlns="http://www.w3.org/2000/svg">
<path d="M13.4267 4.28751C13.0761 3.45083 12.5661 2.69035 11.9251 2.04845C11.286 1.40543 10.5269 0.894195 9.69076 0.543764C8.83422 0.183032 7.91392 -0.00187867 6.98451 1.43896e-05H6.95326C6.00795 0.00470189 5.09389 0.192202 4.23295 0.560952C3.404 0.914975 2.65197 1.42712 2.01889 2.06876C1.38409 2.70922 0.879939 3.46705 0.534513 4.30001C0.175943 5.16621 -0.0057458 6.09537 0.000138487 7.03283C0.00482599 8.1172 0.264201 9.19376 0.748576 10.1563V12.5313C0.748576 12.9281 1.07045 13.25 1.46576 13.25H3.83764C4.80463 13.738 5.87171 13.9947 6.95483 14H6.98764C7.92201 14 8.8267 13.8188 9.67983 13.4641C10.5117 13.1178 11.268 12.6125 11.9064 11.9766C12.5501 11.3375 13.0564 10.5906 13.4111 9.75783C13.7783 8.89533 13.9658 7.97814 13.9705 7.03126C13.9736 6.0797 13.7892 5.15626 13.4267 4.28751ZM3.86576 7.75001C3.45326 7.75001 3.11733 7.41408 3.11733 7.00001C3.11733 6.58595 3.45326 6.25001 3.86576 6.25001C4.27826 6.25001 4.6142 6.58595 4.6142 7.00001C4.6142 7.41408 4.27983 7.75001 3.86576 7.75001ZM6.98451 7.75001C6.57201 7.75001 6.23608 7.41408 6.23608 7.00001C6.23608 6.58595 6.57201 6.25001 6.98451 6.25001C7.39701 6.25001 7.73295 6.58595 7.73295 7.00001C7.73295 7.41408 7.39701 7.75001 6.98451 7.75001ZM10.1033 7.75001C9.69076 7.75001 9.35483 7.41408 9.35483 7.00001C9.35483 6.58595 9.69076 6.25001 10.1033 6.25001C10.5158 6.25001 10.8517 6.58595 10.8517 7.00001C10.8517 7.41408 10.5158 7.75001 10.1033 7.75001Z" fill="#2196F3"/>
</svg>
