<svg width="72" height="21" viewBox="0 0 72 21" fill="none" xmlns="http://www.w3.org/2000/svg">
<path d="M22.4248 14.416C22.4248 14.0352 22.2666 13.7451 21.9502 13.5459C21.6396 13.3467 21.1211 13.1709 20.3945 13.0186C19.668 12.8662 19.0615 12.6729 18.5752 12.4385C17.5088 11.9229 16.9756 11.1758 16.9756 10.1973C16.9756 9.37695 17.3213 8.69141 18.0127 8.14062C18.7041 7.58984 19.583 7.31445 20.6494 7.31445C21.7861 7.31445 22.7031 7.5957 23.4004 8.1582C24.1035 8.7207 24.4551 9.4502 24.4551 10.3467H22.3193C22.3193 9.93652 22.167 9.59668 21.8623 9.32715C21.5576 9.05176 21.1533 8.91406 20.6494 8.91406C20.1807 8.91406 19.7969 9.02246 19.498 9.23926C19.2051 9.45605 19.0586 9.74609 19.0586 10.1094C19.0586 10.4375 19.1963 10.6924 19.4717 10.874C19.7471 11.0557 20.3037 11.2402 21.1416 11.4277C21.9795 11.6094 22.6357 11.8291 23.1104 12.0869C23.5908 12.3389 23.9453 12.6436 24.1738 13.001C24.4082 13.3584 24.5254 13.792 24.5254 14.3018C24.5254 15.1572 24.1709 15.8516 23.4619 16.3848C22.7529 16.9121 21.8242 17.1758 20.6758 17.1758C19.8965 17.1758 19.2021 17.0352 18.5928 16.7539C17.9834 16.4727 17.5088 16.0859 17.1689 15.5938C16.8291 15.1016 16.6592 14.5713 16.6592 14.0029H18.7334C18.7627 14.5068 18.9531 14.8965 19.3047 15.1719C19.6562 15.4414 20.1221 15.5762 20.7021 15.5762C21.2646 15.5762 21.6924 15.4707 21.9854 15.2598C22.2783 15.043 22.4248 14.7617 22.4248 14.416ZM29.0693 5.17871V7.49023H30.748V9.07227H29.0693V14.3809C29.0693 14.7441 29.1396 15.0078 29.2803 15.1719C29.4268 15.3301 29.6846 15.4092 30.0537 15.4092C30.2998 15.4092 30.5488 15.3799 30.8008 15.3213V16.9736C30.3145 17.1084 29.8457 17.1758 29.3945 17.1758C27.7539 17.1758 26.9336 16.2705 26.9336 14.46V9.07227H25.3691V7.49023H26.9336V5.17871H29.0693ZM38.0693 17C37.9756 16.8184 37.8936 16.5225 37.8232 16.1123C37.1436 16.8213 36.3115 17.1758 35.3271 17.1758C34.3721 17.1758 33.5928 16.9033 32.9893 16.3584C32.3857 15.8135 32.084 15.1396 32.084 14.3369C32.084 13.3232 32.459 12.5469 33.209 12.0078C33.9648 11.4629 35.043 11.1904 36.4434 11.1904H37.7529V10.5664C37.7529 10.0742 37.6152 9.68164 37.3398 9.38867C37.0645 9.08984 36.6455 8.94043 36.083 8.94043C35.5967 8.94043 35.1982 9.06348 34.8877 9.30957C34.5771 9.5498 34.4219 9.85742 34.4219 10.2324H32.2861C32.2861 9.71094 32.459 9.22461 32.8047 8.77344C33.1504 8.31641 33.6191 7.95898 34.2109 7.70117C34.8086 7.44336 35.4736 7.31445 36.2061 7.31445C37.3193 7.31445 38.207 7.5957 38.8691 8.1582C39.5312 8.71484 39.8711 9.5 39.8887 10.5137V14.8027C39.8887 15.6582 40.0088 16.3408 40.249 16.8506V17H38.0693ZM35.7227 15.4619C36.1445 15.4619 36.54 15.3594 36.9092 15.1543C37.2842 14.9492 37.5654 14.6738 37.7529 14.3281V12.5352H36.6016C35.8105 12.5352 35.2158 12.6729 34.8174 12.9482C34.4189 13.2236 34.2197 13.6133 34.2197 14.1172C34.2197 14.5273 34.3545 14.8555 34.624 15.1016C34.8994 15.3418 35.2656 15.4619 35.7227 15.4619ZM46.0322 15.4707C46.5654 15.4707 47.0078 15.3154 47.3594 15.0049C47.7109 14.6943 47.8984 14.3105 47.9219 13.8535H49.9346C49.9111 14.4453 49.7266 14.999 49.3809 15.5146C49.0352 16.0244 48.5664 16.4287 47.9746 16.7275C47.3828 17.0264 46.7441 17.1758 46.0586 17.1758C44.7285 17.1758 43.6738 16.7451 42.8945 15.8838C42.1152 15.0225 41.7256 13.833 41.7256 12.3154V12.0957C41.7256 10.6484 42.1123 9.49121 42.8857 8.62402C43.6592 7.75098 44.7139 7.31445 46.0498 7.31445C47.1807 7.31445 48.1006 7.64551 48.8096 8.30762C49.5244 8.96387 49.8994 9.82812 49.9346 10.9004H47.9219C47.8984 10.3555 47.7109 9.90723 47.3594 9.55566C47.0137 9.2041 46.5713 9.02832 46.0322 9.02832C45.3408 9.02832 44.8076 9.28027 44.4326 9.78418C44.0576 10.2822 43.8672 11.041 43.8613 12.0605V12.4033C43.8613 13.4346 44.0459 14.2051 44.415 14.7148C44.79 15.2188 45.3291 15.4707 46.0322 15.4707ZM54.6367 12.9219L53.6875 13.8975V17H51.5518V3.5H53.6875V11.2871L54.3555 10.4521L56.9834 7.49023H59.5498L56.0166 11.4541L59.9277 17H57.458L54.6367 12.9219Z" fill="#1A1818"/>
<path d="M65.8447 7.49023V9.54688H60.1143V7.49023H65.8447ZM61.3184 5.12598H64.2803V13.8975C64.2803 14.1494 64.3096 14.3457 64.3682 14.4863C64.4268 14.6211 64.5264 14.7178 64.667 14.7764C64.8135 14.8291 65.0068 14.8555 65.2471 14.8555C65.417 14.8555 65.5576 14.8525 65.6689 14.8467C65.7803 14.835 65.8857 14.8203 65.9854 14.8027V16.9209C65.7334 17.0029 65.4697 17.0645 65.1943 17.1055C64.9189 17.1523 64.626 17.1758 64.3154 17.1758C63.6826 17.1758 63.1406 17.0762 62.6895 16.877C62.2441 16.6777 61.9043 16.3643 61.6699 15.9365C61.4355 15.5088 61.3184 14.9521 61.3184 14.2666V5.12598ZM70.1514 7.49023V17H67.1807V7.49023H70.1514ZM67.0049 5.03809C67.0049 4.61621 67.1572 4.27051 67.4619 4.00098C67.7666 3.73145 68.1621 3.59668 68.6484 3.59668C69.1348 3.59668 69.5303 3.73145 69.835 4.00098C70.1396 4.27051 70.292 4.61621 70.292 5.03809C70.292 5.45996 70.1396 5.80566 69.835 6.0752C69.5303 6.34473 69.1348 6.47949 68.6484 6.47949C68.1621 6.47949 67.7666 6.34473 67.4619 6.0752C67.1572 5.80566 67.0049 5.45996 67.0049 5.03809Z" fill="#5E92F8"/>
<path d="M16 10L8 6L0 10L8 14L16 10ZM8 7.328L13.345 10L8 12.672L2.655 10L8 7.328ZM14.398 12.199L16 13L8 17L0 13L1.602 12.199L8 15.398L14.398 12.199ZM14.398 15.199L16 16L8 20L0 16L1.602 15.199L8 18.398L14.398 15.199Z" fill="#5E92F8"/>
</svg>
